<?xml version="1.0" encoding="utf-8"?>
<!-- Generator: Adobe Illustrator 15.0.0, SVG Export Plug-In  -->
<!DOCTYPE svg PUBLIC "-//W3C//DTD SVG 1.1//EN" "http://www.w3.org/Graphics/SVG/1.1/DTD/svg11.dtd" [
	<!ENTITY ns_flows "http://ns.adobe.com/Flows/1.0/">
]>
<svg version="1.1"
	 xmlns="http://www.w3.org/2000/svg" xmlns:xlink="http://www.w3.org/1999/xlink" xmlns:a="http://ns.adobe.com/AdobeSVGViewerExtensions/3.0/"
	 x="0px" y="0px" width="548px" height="160px" viewBox="-30 -30 548 160" enable-background="new -30 -30 548 160"
	 xml:space="preserve">
<defs>
</defs>
<polygon fill-rule="evenodd" clip-rule="evenodd" fill="#FFFFFF" points="50,0 100,50 50,100 0,50 50,0 "/>
<path fill-rule="evenodd" clip-rule="evenodd" fill="#C60078" d="M53.875,31L59.5,76L50,85.5L40.5,76l5.625-45H53.875L53.875,31
	L53.875,31z M45.1875,29L40.5,19h19l-4.6875,10H45.1875L45.1875,29L45.1875,29z M55.1425781,59.1425781L50,54l-5.1425781,5.1425781
	l-0.4287109,3.4287109L50,57l5.5712891,5.5712891L55.1425781,59.1425781L55.1425781,59.1425781L55.1425781,59.1425781z
	 M54.2861328,52.2861328L50,48l-4.2851563,4.2861328l-0.4296875,3.4277344L50,51l4.7138672,4.7138672L54.2861328,52.2861328
	L54.2861328,52.2861328L54.2861328,52.2861328z"/>
<path fill="#FFFFFF" d="M125,24.9990234h11.859375l13.1445313,21.1416016l13.1445313-21.1416016h11.8544922v50.0019531h-10.9287109
	V42.3544922l-14.0703125,21.3623047h-0.2900391l-13.9248047-21.1474609v32.4316406H125V24.9990234z"/>
<path fill="#FFFFFF" d="M204.1777344,24.6435547h10.1425781l21.4335938,50.3574219h-11.4990234l-4.5712891-11.2128906h-21.1484375
	l-4.5722656,11.2128906H182.75L204.1777344,24.6435547z M215.7509766,54.0742188l-6.6416016-16.2158203l-6.6425781,16.2158203
	H215.7509766z"/>
<path fill="#FFFFFF" d="M248.7070313,35.1416016h-15.2158203V24.9990234h41.4355469v10.1425781h-15.2158203v39.859375h-11.0039063
	V35.1416016z"/>
<path fill="#FFFFFF" d="M283.3779297,24.9990234h10.9980469v19.7861328h20.2871094V24.9990234h11.0048828v50.0019531h-11.0048828
	V54.9287109h-20.2871094v20.0722656h-10.9980469V24.9990234z"/>
<path fill="#FFFFFF" d="M334.2646484,67.7128906l6.5029297-7.7822266c4.5009766,3.7109375,9.2119141,6.0732422,14.9296875,6.0732422
	c4.4951172,0,7.2177734-1.7861328,7.2177734-4.7177734V61.140625c0-2.7851563-1.7216797-4.2109375-10.0732422-6.3574219
	c-10.0742188-2.5703125-16.5771484-5.3564453-16.5771484-15.2851563v-0.1396484
	c0-9.0722656,7.2880859-15.0751953,17.5078125-15.0751953c7.28125,0,13.4931641,2.2851563,18.5654297,6.3574219
	l-5.7119141,8.2880859c-4.4326172-3.0712891-8.7832031-4.9267578-13-4.9267578s-6.4267578,1.9257813-6.4267578,4.3564453v0.1396484
	c0,3.2861328,2.140625,4.3564453,10.7832031,6.5722656c10.1445313,2.6464844,15.8554688,6.2871094,15.8554688,15v0.1455078
	c0,9.9287109-7.5722656,15.5-18.3564453,15.5C347.9091797,75.7158203,340.2666016,73.0703125,334.2646484,67.7128906z"/>
<path fill="#FFFFFF" d="M381.2246094,50.1425781v-0.1396484c0-14.2148438,11.2138672-25.859375,26.6386719-25.859375
	c15.4316406,0,26.5048828,11.4990234,26.5048828,25.7138672v0.1455078c0,14.2148438-11.2197266,25.8535156-26.6445313,25.8535156
	C392.2929688,75.8564453,381.2246094,64.3574219,381.2246094,50.1425781z M422.8632813,50.1425781v-0.1396484
	c0-8.5732422-6.28125-15.7158203-15.1396484-15.7158203s-15.0058594,6.9970703-15.0058594,15.5703125v0.1455078
	c0,8.5673828,6.2929688,15.7089844,15.1455078,15.7089844C416.7216797,65.7119141,422.8632813,58.7158203,422.8632813,50.1425781z"
	/>
<path fill="#FFFFFF" d="M441.9707031,50.1425781v-0.1396484c0-14.2148438,10.7138672-25.859375,26.0742188-25.859375
	c9.4277344,0,15.0703125,3.140625,19.7109375,7.7119141l-6.9960938,8.0742188
	c-3.8623047-3.5029297-7.7890625-5.6425781-12.7900391-5.6425781c-8.4287109,0-14.5009766,6.9970703-14.5009766,15.5703125
	v0.1455078c0,8.5673828,5.9326172,15.7089844,14.5009766,15.7089844c5.7167969,0,9.2177734-2.2851563,13.1445313-5.8564453
	l7.0019531,7.0722656c-5.1464844,5.5019531-10.8583984,8.9287109-20.5019531,8.9287109
	C452.8994141,75.8564453,441.9707031,64.5029297,441.9707031,50.1425781z"/>
</svg>
