<?xml version="1.0" encoding="UTF-8" standalone="no"?>
<svg
   xmlns:dc="http://purl.org/dc/elements/1.1/"
   xmlns:cc="http://creativecommons.org/ns#"
   xmlns:rdf="http://www.w3.org/1999/02/22-rdf-syntax-ns#"
   xmlns:svg="http://www.w3.org/2000/svg"
   xmlns="http://www.w3.org/2000/svg"
   xmlns:sodipodi="http://sodipodi.sourceforge.net/DTD/sodipodi-0.dtd"
   xmlns:inkscape="http://www.inkscape.org/namespaces/inkscape"
   inkscape:version="1.0 (4035a4fb49, 2020-05-01)"
   sodipodi:docname="favicon.svg"
   id="svg851"
   xml:space="preserve"
   enable-background="new -30 -30 160 160"
   viewBox="-30 -30 100 99.999512"
   height="99.999512"
   width="100"
   y="0px"
   x="0px"
   version="1.1"><metadata
   id="metadata855"><rdf:RDF><cc:Work
       rdf:about=""><dc:format>image/svg+xml</dc:format><dc:type
         rdf:resource="http://purl.org/dc/dcmitype/StillImage" /></cc:Work></rdf:RDF></metadata><sodipodi:namedview
   inkscape:current-layer="svg851"
   inkscape:window-maximized="1"
   inkscape:window-y="-8"
   inkscape:window-x="-8"
   inkscape:cy="50"
   inkscape:cx="50"
   inkscape:zoom="4.3125"
   showgrid="false"
   id="namedview853"
   inkscape:window-height="1017"
   inkscape:window-width="1920"
   inkscape:pageshadow="2"
   inkscape:pageopacity="0"
   guidetolerance="10"
   gridtolerance="10"
   objecttolerance="10"
   borderopacity="1"
   bordercolor="#666666"
   pagecolor="#ffffff" />
<defs
   id="defs845">
</defs>
<style>
    polygon {
        fill: #c60078;
    }
</style>
<polygon
   transform="translate(-30,-30)"
   id="polygon847"
   points="50,99.999512 0,50 50,0 100,50 "
   clip-rule="evenodd"
   fill-rule="evenodd" />
<style>
    path {
        fill: #ffffff;
    }
</style>
<path
   id="path849"
   d="M 23.875,1 29.5,46 20,55.5 10.5,46 16.125,1 h 7.75 z M 15.1875,-1 10.5,-11 h 19 l -4.6875,10 h -9.625 z M 25.142578,29.142578 20,24 14.856934,29.142578 14.428711,32.571289 20,27 25.571289,32.571289 25.142578,29.142578 Z M 24.286133,22.286133 20,18 15.714355,22.286133 15.285645,25.713867 20,21 l 4.713867,4.713867 -0.427734,-3.427734 z"
   fill="#ffffff"
   clip-rule="evenodd"
   fill-rule="evenodd" />
</svg>
