<?xml version="1.0" encoding="utf-8"?>
<!-- Generator: Adobe Illustrator 15.0.0, SVG Export Plug-In  -->
<!DOCTYPE svg PUBLIC "-//W3C//DTD SVG 1.1//EN" "http://www.w3.org/Graphics/SVG/1.1/DTD/svg11.dtd" [
	<!ENTITY ns_flows "http://ns.adobe.com/Flows/1.0/">
]>
<svg version="1.1"
	 xmlns="http://www.w3.org/2000/svg" xmlns:xlink="http://www.w3.org/1999/xlink" xmlns:a="http://ns.adobe.com/AdobeSVGViewerExtensions/3.0/"
	 x="0px" y="0px" width="210px" height="197px" viewBox="-30 -30 210 197" enable-background="new -30 -30 210 197"
	 xml:space="preserve">
<defs>
</defs>
<polygon fill-rule="evenodd" clip-rule="evenodd" fill="#C60078" points="75,0 125,50 75,100 25,50 75,0 "/>
<path fill-rule="evenodd" clip-rule="evenodd" fill="#FFFFFF" d="M78.875,31L84.5,76L75,85.5L65.5,76l5.625-45H78.875L78.875,31
	L78.875,31z M70.1875,29L65.5,19h19l-4.6875,10H70.1875L70.1875,29L70.1875,29z M80.1425781,59.1425781L75,54l-5.1425781,5.1425781
	l-0.4287109,3.4296875L75,57l5.5712891,5.5722656L80.1425781,59.1425781L80.1425781,59.1425781L80.1425781,59.1425781z
	 M79.2861328,52.2871094L75,48l-4.2851563,4.2871094l-0.4296875,3.4277344L75,51l4.7138672,4.7148438L79.2861328,52.2871094
	L79.2861328,52.2871094L79.2861328,52.2871094z"/>
<path fill="#C60078" d="M0,115.0214844h4.8984375l5.4306641,8.734375l5.4296875-8.734375H20.65625v20.6557617h-4.515625v-13.4858398
	l-5.8115234,8.8237305h-0.1201172L4.4570313,122.28125v13.3959961H0V115.0214844z"/>
<path fill="#C60078" d="M32.7070313,114.875h4.1904297l8.8544922,20.8022461h-4.75l-1.8886719-4.6328125h-8.7363281
	l-1.8886719,4.6328125h-4.6328125L32.7070313,114.875z M37.4882813,127.0327148l-2.7441406-6.6987305l-2.7431641,6.6987305
	H37.4882813z"/>
<path fill="#C60078" d="M51.1015625,119.2128906h-6.2851563v-4.1914063h17.1171875v4.1914063h-6.2851563v16.4643555h-4.546875
	V119.2128906z"/>
<path fill="#C60078" d="M65.4248047,115.0214844h4.5429688v8.1738281h8.3798828v-8.1738281h4.546875v20.6557617h-4.546875
	v-8.2910156h-8.3798828v8.2910156h-4.5429688V115.0214844z"/>
<path fill="#C60078" d="M86.4453125,132.6674805l2.6865234-3.2148438c1.859375,1.53125,3.8046875,2.5078125,6.1669922,2.5078125
	c1.8574219,0,2.9814453-0.7382813,2.9814453-1.9492188v-0.0585938c0-1.1523438-0.7109375-1.7402344-4.1611328-2.6269531
	c-4.1611328-1.0625-6.8476563-2.2124023-6.8476563-6.3139648v-0.0566406c0-3.7480469,3.0107422-6.2285156,7.2324219-6.2285156
	c3.0078125,0,5.5742188,0.9433594,7.6689453,2.6269531l-2.359375,3.4238281
	c-1.8310547-1.2695313-3.6279297-2.0351563-5.3701172-2.0351563s-2.6552734,0.7949219-2.6552734,1.7988281v0.0585938
	c0,1.3574219,0.8847656,1.7988281,4.4550781,2.7148438c4.1904297,1.0917969,6.5498047,2.5957031,6.5498047,6.1948242v0.0605469
	c0,4.1015625-3.1279297,6.4023438-7.5830078,6.4023438C92.0820313,135.972168,88.9248047,134.8803711,86.4453125,132.6674805z"/>
<path fill="#C60078" d="M105.84375,125.4082031v-0.0566406c0-5.8730469,4.6328125-10.6816406,11.0048828-10.6816406
	c6.3740234,0,10.9482422,4.75,10.9482422,10.6210938v0.0605469c0,5.8706055-4.6347656,10.6791992-11.0058594,10.6791992
	C110.4160156,136.0307617,105.84375,131.2807617,105.84375,125.4082031z M123.0449219,125.4082031v-0.0566406
	c0-3.5410156-2.5947266-6.4921875-6.2539063-6.4921875c-3.6601563,0-6.1992188,2.890625-6.1992188,6.4316406v0.0605469
	c0,3.5385742,2.5996094,6.487793,6.2568359,6.487793C120.5078125,131.8393555,123.0449219,128.9506836,123.0449219,125.4082031z"/>
<path fill="#C60078" d="M130.9375,125.4082031v-0.0566406c0-5.8730469,4.4257813-10.6816406,10.7714844-10.6816406
	c3.8945313,0,6.2255859,1.296875,8.1425781,3.1855469l-2.890625,3.3339844
	c-1.5957031-1.4472656-3.2177734-2.3300781-5.2832031-2.3300781c-3.4814453,0-5.9902344,2.890625-5.9902344,6.4316406v0.0605469
	c0,3.5385742,2.4501953,6.487793,5.9902344,6.487793c2.3613281,0,3.8076172-0.9433594,5.4296875-2.4179688L150,132.3432617
	c-2.1259766,2.2714844-4.4853516,3.6875-8.46875,3.6875C135.4521484,136.0307617,130.9375,131.3413086,130.9375,125.4082031z"/>
</svg>
